<?xml version="1.0" encoding="UTF-8"?><svg xmlns="http://www.w3.org/2000/svg" xmlns:xlink="http://www.w3.org/1999/xlink" height="345.7" preserveAspectRatio="xMidYMid meet" version="1.0" viewBox="-29.5 -0.0 361.5 345.7" width="361.5" zoomAndPan="magnify"><defs><clipPath id="a"><path d="M 0 286 L 314 286 L 314 345.738281 L 0 345.738281 Z M 0 286"/></clipPath><clipPath id="b"><path d="M 281 186 L 332.03125 186 L 332.03125 311 L 281 311 Z M 281 186"/></clipPath><clipPath id="c"><path d="M 274 170 L 332.03125 170 L 332.03125 238 L 274 238 Z M 274 170"/></clipPath><clipPath id="d"><path d="M 30 305 L 313 305 L 313 345.738281 L 30 345.738281 Z M 30 305"/></clipPath></defs><g><path d="M 1187.5 194.470313 L 1187.5 3397.439063" fill="none" stroke="#293982" stroke-linecap="round" stroke-miterlimit="10" stroke-width="120" transform="matrix(.1 0 0 -.1 0 345.74)"/><g id="change1_1"><path d="M 112.632812 274.589844 C 112.632812 274.589844 43.382812 161.78125 112.746094 19.292969 C 112.746094 19.292969 -29.453125 138 12.019531 281.734375 C 12.019531 281.734375 46.847656 253.140625 112.632812 274.589844" fill="#f68395"/></g><g id="change2_1"><path d="M 124.746094 19.292969 C 124.746094 19.292969 172.980469 130.742188 124.746094 274.761719 C 124.746094 274.761719 220.980469 245.890625 331.03125 281.734375 C 331.03125 281.734375 289.375 74.945312 124.746094 19.292969" fill="#f8a30e"/></g><g clip-path="url(#a)" id="change1_2"><path d="M 3.914062 302.445312 C 33.289062 297 176.664062 273.09375 309.101562 298.171875 C 312.609375 298.835938 314.195312 302.949219 312.023438 305.78125 C 302.398438 318.324219 280.113281 345.738281 269.25 345.738281 L 30.125 345.738281 C 29.070312 345.738281 28.054688 345.394531 27.21875 344.757812 C 22.730469 341.335938 8.125 329.058594 0.320312 308.847656 C -0.753906 306.066406 0.980469 302.988281 3.914062 302.445312" fill="#f68395"/></g><g id="change2_2"><path d="M 331.03125 281.734375 C 331.03125 281.734375 289.375 74.945312 124.746094 19.292969 C 201.140625 132.648438 191.441406 236.265625 186.816406 264.792969 C 224.613281 262.074219 276.101562 263.839844 331.03125 281.734375" fill="#f8a30e"/></g><g id="change3_1"><path d="M 124.746094 19.292969 C 124.746094 19.292969 172.980469 130.742188 124.746094 274.761719 C 124.746094 274.761719 148.890625 267.519531 186.816406 264.792969 C 191.441406 236.265625 201.140625 132.648438 124.746094 19.292969" fill="#e97d16"/></g><g id="change3_2"><path d="M 331.03125 281.734375 C 331.03125 281.734375 266.851562 191.023438 176.710938 130.085938 C 176.710938 130.085938 249.921875 160.671875 314.199219 226.230469 C 314.199219 226.230469 324.871094 253.480469 331.03125 281.734375" fill="#e97d16"/></g><g id="change3_3"><path d="M 112.746094 19.292969 C 112.746094 19.292969 -29.453125 138 12.019531 281.734375 C 12.019531 281.734375 31.828125 265.480469 69.773438 266.679688 C 61.328125 226.429688 42.085938 99.714844 112.746094 19.292969" fill="#e97d16"/></g><g id="change2_3"><path d="M 112.746094 19.292969 C 42.085938 99.714844 61.328125 226.429688 69.773438 266.679688 C 82.152344 267.070312 96.453125 269.316406 112.632812 274.589844 C 112.632812 274.589844 43.382812 161.78125 112.746094 19.292969" fill="#f8a30e"/></g><path d="M 918.632812 2710.876563 C 978.554688 2983.3375 1127.460938 3264.470313 1127.460938 3264.470313 C 1127.460938 3264.470313 1033.75 3170.720313 896.054688 3033.064063" fill="none" stroke="#293982" stroke-linecap="round" stroke-miterlimit="10" stroke-width="20" transform="matrix(.1 0 0 -.1 0 345.74)"/><path d="M 1247.460938 3264.470313 C 1247.460938 3264.470313 1400.351562 2837.204688 1434.0625 2481.4625" fill="none" stroke="#293982" stroke-linecap="round" stroke-miterlimit="10" stroke-width="20" transform="matrix(.1 0 0 -.1 0 345.74)"/><path d="M 1441.523438 2414.196875 L 1451.679688 2296.696875" fill="none" stroke="#293982" stroke-linecap="round" stroke-miterlimit="10" stroke-width="20" transform="matrix(.1 0 0 -.1 0 345.74)"/><path d="M 1023.867188 922.165625 L 1153.085938 652.282813 L 1247.460938 709.782813 L 1292.421875 852.282813" fill="none" stroke="#293982" stroke-linecap="round" stroke-miterlimit="10" stroke-width="20" transform="matrix(.1 0 0 -.1 0 345.74)"/><g clip-path="url(#b)"><path d="M 3310.3125 640.05625 C 3310.3125 640.05625 3178.125 1122.204688 3095.859375 1313.49375" fill="none" stroke="#293982" stroke-linecap="round" stroke-miterlimit="10" stroke-width="20" transform="matrix(.1 0 0 -.1 0 345.74)"/></g><g clip-path="url(#c)"><path d="M 3073.398438 1368.025 L 3029.335938 1469.939063" fill="none" stroke="#293982" stroke-linecap="round" stroke-miterlimit="10" stroke-width="20" transform="matrix(.1 0 0 -.1 0 345.74)"/></g><g clip-path="url(#d)" id="change4_1"><path d="M 30.125 345.738281 C 30.125 345.738281 250.316406 321.171875 312.023438 305.78125 C 312.023438 305.78125 283.976562 345.738281 269.25 345.738281 C 254.527344 345.738281 30.125 345.738281 30.125 345.738281" fill="#db5f6e"/></g></g></svg>