<?xml version="1.0" encoding="UTF-8"?><svg xmlns="http://www.w3.org/2000/svg" xmlns:xlink="http://www.w3.org/1999/xlink" height="160.5" preserveAspectRatio="xMidYMid meet" version="1.1" viewBox="65.0 133.6 296.6 160.5" width="296.6" zoomAndPan="magnify">
 <g id="surface1">
  <g id="change1_1"><path d="m358.47 211.41c0 21.94-65.68 39.73-146.71 39.73s-146.72-17.79-146.72-39.73c-0.001-21.95 65.69-39.74 146.72-39.74s146.71 17.79 146.71 39.74" fill="#e3ba75"/></g>
  <g id="change2_1"><path d="m358.47 211.41v-0.03 0.03m-293.43-0.02v-0.01 0.01m293.43-0.02v-0.01 0.01m-293.43 0v-0.01 0.01m293.43-0.01v-0.02 0.02m-293.43-0.02m293.43 0v-0.01 0.01m-293.43-0.02m293.43 0v-0.01 0.01m-293.43-0.02m293.43 0m0-0.02m-293.43 0v-0.01 0.01m0-0.02v-0.01 0.01m0-0.07" fill="#f8e2b7"/></g>
  <g id="change3_1"><path d="m211.76 251.14c-81.03 0-146.72-17.79-146.72-39.73-0.001-0.01-0.001-0.02-0.001-0.02v-0.01-0.01-0.01-0.02c0-0.01 0.004-0.01 0.004-0.02v-0.02-0.02-0.01-0.01-0.01-0.06c0.145-7.33 7.629-14.19 20.551-20.07-3.532 5.69-4.074 12.67 0.301 19.63 7.777 12.37 24.995 17.71 38.215 21.64 16.7 4.95 34.21 7.68 51.52 9.45 14.46 1.48 29.1 2.15 43.78 2.15 22.41 0 44.89-1.56 66.9-4.14 6.26-0.74 12.55-1.65 18.74-2.93 0.27 1.69 0.47 3.37 0.64 5.01-25.45 5.75-58.2 9.21-93.93 9.21m102.31-11.25c-0.14-1.51-0.32-3.01-0.53-4.5-0.03-0.15-0.05-0.3-0.07-0.45 2.85-0.76 5.69-1.63 8.48-2.6 0.31 0.89 0.62 1.78 0.94 2.66 0.25 0.71 0.52 1.41 0.79 2.1-3.04 0.97-6.25 1.9-9.61 2.79m17.95-5.71c-0.67-1.68-1.31-3.37-1.96-5.07 0.35-0.15 0.69-0.31 1.03-0.47 11.23-5.21 20.27-14.29 17.68-27.52-0.34-1.72-0.83-3.35-1.43-4.92 7.11 4.65 11.07 9.74 11.13 15.08v0.02 0.01 0.01 0.01 0.01 0.02 0.01 0.01 0.03c0 8.47-9.78 16.32-26.45 22.77" fill="#dea95a"/></g>
  <g id="change4_1"><path d="m290.2 212.43c0-0.12 0.01-0.23 0.01-0.34 0-43.33-35.12-78.46-78.45-78.46s-78.46 35.13-78.46 78.46c0 0.11 0.01 0.22 0.01 0.34 0 0 28.52 10.52 78.79 10.52 50.26 0 78.1-10.52 78.1-10.52" fill="#f2c878"/></g>
  <g id="change3_2"><path d="m133.3 212.02v-0.02 0.02m0-0.07v-0.02 0.02m0-0.06v-0.03 0.03m0-0.07v-0.02 0.02m0-0.07v-0.02 0.02m0-0.07v-0.02 0.02m0-0.07v-0.02 0.02m0.01-0.07v-0.01 0.01" fill="#dea95a"/></g>
  <g id="change5_1"><path d="m133.3 212.02v-0.02-0.01 0.03m0-0.05v-0.02-0.02-0.04-0.03-0.04-0.02-0.05-0.02-0.05-0.02-0.05-0.02c0-0.02 0-0.03 0.01-0.05v-0.01c0.16-23.43 10.61-44.41 27.04-58.68-1.83 12.84 1.18 25.99 10.93 35.05 9.33 8.68 22.15 12.72 34.49 14.71 7.07 1.14 14.14 1.64 21.2 1.64 11.02 0 22.02-1.22 33-3.12 9.53-1.64 19.07-3.44 28.34-6.17 0.14 0.59 0.26 1.2 0.38 1.8-5.77 2.59-11.63 4.97-17.64 6.98-16.03 5.37-33.06 7.34-49.93 7.34-0.66 0-1.33 0-2-0.01-17.84-0.16-35.88-2.01-53.53-4.62-10.5-1.56-21.2-3.89-31.07-8.03-0.78 4.4-1.21 8.93-1.22 13.55" fill="#edb55b"/></g>
  <g id="change6_1"><path d="m288.74 207.88c5.83-6.49 15.31-4.35 21.03 1.14 7.2 6.91 9.83 16.9 13.12 25.98 3.25 8.97 7.57 17.17 13.44 24.7 5.72 7.34 12.48 14.19 15.34 23.26 1.65 5.24 9.93 3 8.27-2.28-3.4-10.79-11.15-18.57-17.8-27.39-7.76-10.29-10.95-22-15.78-33.72-3.75-9.11-9.47-18.16-18.84-22.27-8.31-3.65-18.63-2.39-24.84 4.51-3.69 4.09 2.36 10.18 6.06 6.07" fill="#f14699"/></g>
  <g id="change6_2"><path d="m286.6 211.42c15.92 3.35 18.58 21.7 19.47 35.23 1.05 15.71 3.06 30.19 12.83 43.1 3.29 4.35 10.74 0.08 7.4-4.32-5.19-6.88-8.69-14.52-10.18-23.02-1.57-8.92-1.28-18.07-2.58-27.02-2.06-14.14-9.43-29.03-24.66-32.23-5.38-1.14-7.68 7.13-2.28 8.26" fill="#f14699"/></g>
  <g id="change6_3"><path d="m271.05 203.74c-16.67 5.58-34.41 7.49-51.93 7.33-17.84-0.16-35.88-2.01-53.53-4.62-10.5-1.56-21.2-3.89-31.07-8.03-0.79 4.44-1.22 9-1.22 13.67 0 0.11 0.01 0.22 0.01 0.34 0 0 28.52 10.52 78.79 10.52 50.26 0 78.1-10.52 78.1-10.52 0-0.12 0.01-0.23 0.01-0.34 0-5.25-0.53-10.38-1.51-15.34-5.77 2.6-11.64 4.97-17.65 6.99" fill="#f14699"/></g>
  <g id="change7_1"><path d="m212.1 222.95c-50.27 0-78.79-10.52-78.79-10.52 0-0.12-0.01-0.23-0.01-0.34 0-2.34 0.13-4.65 0.34-6.94 11.31 5.81 23.48 9.62 36.13 11.42 15.93 2.26 32.09 3.73 48.19 3.73 1.01 0 2.02-0.01 3.03-0.02 16.74-0.19 32.87-3.09 49.03-7.32 7.32-1.91 13.78-4.79 19.81-8.42 0.24 2.48 0.38 5 0.38 7.55 0 0.11-0.01 0.22-0.01 0.34 0 0-0.04 0.01-0.11 0.04-1.99 0.73-29.6 10.48-77.99 10.48" fill="#ed187a"/></g>
 </g>
</svg>