<?xml version="1.0" encoding="UTF-8"?><svg xmlns="http://www.w3.org/2000/svg" xmlns:xlink="http://www.w3.org/1999/xlink" height="193.4" preserveAspectRatio="xMidYMid meet" version="1.0" viewBox="-1.4 0.2 502.0 193.4" width="502.0" zoomAndPan="magnify"><g data-name="Layer 21"><g id="change1_1"><path d="M495.53,159.42c-2-2.48-4.45-5.55-4.45-16.43h0V127l.21-.13a13.54,13.54,0,0,0,6.07-11.64v-.2a17.13,17.13,0,0,0-5.5-12.47,2.37,2.37,0,0,1-.78-1.72V91.13c0-8.85-3.75-13.44-7.07-15.77a2.05,2.05,0,0,1-.53-.53,15.46,15.46,0,0,0-3.61-3.61,2.06,2.06,0,0,1-.51-.51,15.08,15.08,0,0,0-7.08-5.44c-9.9-3.6-16.21,4.4-18.59,7.41a16.56,16.56,0,0,1-2.87,3.13,33.86,33.86,0,0,1-5.57,2.36,35,35,0,0,0-5.85,2.56,2.32,2.32,0,0,1-2.76-.31,29.48,29.48,0,0,0-16.05-7.93A31.51,31.51,0,0,0,404,74.25a2.26,2.26,0,0,1-2.31-.4,16,16,0,0,0-10-4.06c-1.64-.09-4.2-.17-16.14,3.62l-1,.3a46.72,46.72,0,0,0-10.26,4.16,2.29,2.29,0,0,1-2.38,0,34.87,34.87,0,0,0-18-5.19,2.29,2.29,0,0,1-2.2-2.84,18.8,18.8,0,0,0,.59-4.74c0-5.33-2.22-9.32-3.84-12.24-.13-.24-.26-.48-.39-.7a25.55,25.55,0,0,0,7.67.36c23.8-2.14,25.65-18.35,25.65-23.26A18.17,18.17,0,0,0,364,14.56a2.28,2.28,0,0,1-.38-.38,20.07,20.07,0,0,0-3.74-3.74,2.28,2.28,0,0,1-.38-.38C354.9,4,346.37.55,335.31.41h-.21a54.42,54.42,0,0,0-15.2,2.27,2.34,2.34,0,0,1-1.74-.18,18.61,18.61,0,0,0-8.46-2h-.1C306.41.49,299.06,2,295,2.87L294.2,3c-1.66.34-3.34.69-5,1.11a2.37,2.37,0,0,1-1.78-.28c-4.9-2.9-10.55-2.82-13.55-2.79l-14.79.12h-.46c-2.27,0-6.81,0-11.12,2.39a2.2,2.2,0,0,1-2.14,0,18,18,0,0,0-8.67-2.23h-.18l-13.32.1a18.31,18.31,0,0,0-12.57,5.39,17,17,0,0,0-1.15,1.26,2.27,2.27,0,0,1-3.07.38A40.57,40.57,0,0,0,183.2,1a35.31,35.31,0,0,0-22.36,7.16,2.26,2.26,0,0,1-2,.4,15.75,15.75,0,0,0-2.39-.45,15.58,15.58,0,0,0-16.27,9.77c-.12.3-.23.62-.33.94a16.6,16.6,0,0,0-2.34,1.71,15.39,15.39,0,0,0-3.57,19c.13.24.26.48.41.72a2.46,2.46,0,0,1,.35,1.5,15.63,15.63,0,0,0,4.82,12.83,2.3,2.3,0,0,1,.71,1.81c0,1.22-.07,2.45-.07,3.68,0,12.76,2.55,29.81,14.44,39.82a1.15,1.15,0,0,1,.22.22,33.58,33.58,0,0,0,3.91,3.91,1.45,1.45,0,0,1,.22.21,32.54,32.54,0,0,0,4.48,4.39,2.29,2.29,0,0,1-1.26,4.08c-1.58.1-3.19.28-4.82.53a51.73,51.73,0,0,0-27.69,12.38,2.29,2.29,0,0,1-3,0h0c-5-6.36-12.73-9.94-22-10.15a50,50,0,0,0-18.2,3.28,2.35,2.35,0,0,1-2.33-.41,33.59,33.59,0,0,0-15.07-6.93,40.45,40.45,0,0,0-15.23-.3l-2.46-.92a19.19,19.19,0,0,0-8.52-6l-.22-.07a54.19,54.19,0,0,0-9-1.6c-1.83-.24-3.71-.48-4.76-.67l-.24,0c-.81-.13-1.64-.29-2.45-.43-5.56-1-12.49-2.3-18.15,2.42A13.87,13.87,0,0,0,3.19,114.7c0,5.31,1.8,9.45,3.38,13.1a43.08,43.08,0,0,1,2.16,5.66,2.25,2.25,0,0,1-.36,2,15.94,15.94,0,0,0-1,1.41,15.08,15.08,0,0,0-1,1.93,12.42,12.42,0,0,0-1.12.88,14.29,14.29,0,0,0-3.46,17.24c.09.19.2.39.31.58,0,.51,0,1,0,1.51a14.55,14.55,0,0,0,1.5,5.86v.49A16.51,16.51,0,0,0,10.42,179c.19.14,4.45,4.42,4.59,4.61,2.72,3.81,7.84,7.29,17.45,7.52H33q8.51.27,17,.47h.21a35.37,35.37,0,0,0,10.59-1.2,2.34,2.34,0,0,1,1.48,0c.54.19,1.11.37,1.71.52a40.5,40.5,0,0,0,9.12,1.1h.12c4.89.07,9.78.13,14.74.18h.28a37.69,37.69,0,0,0,10.78-1,2.3,2.3,0,0,1,1.3,0c.64.18,1.32.34,2,.48a50,50,0,0,0,8.49.69h15.67a42.52,42.52,0,0,0,7.85-.55,18,18,0,0,0,6.34-2.37,2.25,2.25,0,0,1,2.05-.16c7.95,3.18,17,3.84,24.36,4h1.21c10.26,0,17.93-2.08,23.64-5a2.23,2.23,0,0,1,2.27.14c5,3.39,11.14,3.27,14.64,3.21h.56l16.94-.28h.14a31.77,31.77,0,0,0,10.69-1.94,2.43,2.43,0,0,1,1.68,0,31.59,31.59,0,0,0,10.4,1.57h.23l14.59-.27a27.85,27.85,0,0,0,11-1.89q.5-.21,1-.45a28.56,28.56,0,0,0,10.81,1.94h.25l14.55-.24h.39c8.63,0,13.71-3,16.69-6.71a2.28,2.28,0,0,1,3.08-.43,43.65,43.65,0,0,0,24.6,8h.28a46.37,46.37,0,0,0,22.45-5.37,2.34,2.34,0,0,1,2.48.11c3.07,2.15,7.39,3.68,13.48,3.57h15a29,29,0,0,0,12.67-2.25,2.21,2.21,0,0,1,1.85,0,28.5,28.5,0,0,0,12.58,2.42h.25q6.12.06,12.24.16H440c2.43.08,8.37.27,13.61-3.29a2.28,2.28,0,0,1,2.55,0,29.59,29.59,0,0,0,17.27,5.22c13.06-.05,26.9-7.18,26.91-20.33C500.34,165.42,497.33,161.66,495.53,159.42Z" fill="#fff" stroke="#6d6e71" stroke-linecap="round" stroke-linejoin="round" stroke-width=".5"/></g><g fill="#ff9aca" id="change2_1" stroke="#000" stroke-miterlimit="10"><path d="M159.86,68.37c0-26.65,11.51-48.14,31.34-47.69s31.32,17,31.33,39.43c0,22.7-11.5,39.5-31.33,43.6C171.37,107.48,159.86,94.83,159.86,68.37ZM191.2,84.51c3.5-.65,5.88-8.43,5.88-20.32s-2.38-20.33-5.88-20.06-5.89,9.28-5.89,21.65S187.69,85.11,191.2,84.51Z" fill="inherit"/><path d="M136,163c0-13.87,11.51-27.46,31.34-30.17,19.83-3.12,31.32,7.49,31.33,24.11,0,16.79-11.5,25.31-31.33,25S136,176.64,136,163Zm31.34,9c3.5-.21,5.88-4.43,5.88-11.72s-2.38-12.66-5.88-12.17-5.88,6.26-5.89,13.35S163.8,172.12,167.31,172Z" fill="inherit"/><path d="M227.62,50c0-8.73-2.71-12.81-2.71-21.54a7,7,0,0,1,6.6-7.33l13.36-.1c7.47.05,9.06,10.33,9.06,17.1,0,13.53-4.83,21.67-4.83,27.65,0,3.17,1.06,6.09,3.64,5.51,6-1.4,8.32-13.39,8.32-22.08,0-11.55-2.18-16.38-2.18-22.52s5.82-5.81,8.6-5.84l14.27-.11c2.78,0,10.05-.43,10.05,4.55s-5.88,12.56-5.88,25.88c0,10.69,6,15.53,6,21.36,0,6-6.21,7.09-9,7.75q-6.09,1.48-12.17,3c-4.89,1.22-7.6.47-9.06-2.78-1.58,3.4-9,8.32-14.4,9.7-16.86,4.29-22.48-3.64-22.48-17.42C224.84,62.42,227.62,58.84,227.62,50Z" fill="inherit"/><path d="M305.62,22.29c3.24-.71,10.51-2.16,12.22-2.14a6.39,6.39,0,0,1,6.48,4.53,43.06,43.06,0,0,1,19.11-4.61C352.15,20.18,360,23,360,29.22c0,7.5-5.88,11.06-15.27,11.9-12,1.12-5.88-8.74-13-8-6.8.45-6.74,8.64-6.8,13.39,0,9.45,6,13.08,6,18.57,0,5.73-6.21,6.51-9,7-6.39,1.23-12.78,2.58-19.17,4-2.77.63-9,2.47-9-3.55,0-5.84,5.94-12,5.94-22.13,0-14.69-6.47-16.52-6.47-22.09C293.26,24.66,299.67,23.53,305.62,22.29Z" fill="inherit"/><path d="M35.21,121.35c3.24.58,10.5,1.31,12.23,1.88,2.44.85,4.89,3.23,6.27,8.39a1.91,1.91,0,0,0,1.39,1.52c1.66.46,8.4-4.63,20-2.24,7.94,1.58,12.83,5.82,15.14,11.42,2-2.07,12.1-7.38,22.48-7.13,12,.27,16.91,8.2,16.92,17.62v9.6c0,8.19,6,12.24,6,15.81,0,3.08-7.27,2.77-10,2.81H111c-3.84-.06-10.18-.31-10.18-2.88,0-4.49,3.9-9.54,3.7-16-.14-3.66-1.06-9.65-6.41-10.11s-6,5.54-6.09,9.29c-.13,7.94,6,13.5,6,16.76,0,2.9-5.75,2.81-10,2.79q-7.3-.06-14.61-.18c-3.83-.1-10.17-.53-10.17-3.89,0-5.8,3.89-11.49,3.7-18.69-.14-4.12-1.06-10.7-6.41-12s-6.09,5.22-6.15,9.55c-.07,8.54,6.08,15.9,6.08,21,0,3.35-6.35,3.62-10.18,3.59q-8.46-.19-16.93-.46c-2.77-.1-10,.21-10-6.14,0-7.18,6-13.47,6-24.83,0-13.74-6.47-18.8-6.47-25.84C22.85,118.41,29.26,120.4,35.21,121.35Z" fill="inherit"/><path d="M211.12,126.18c3.24-1.52,10.51-5.28,12.23-5.71,2.44-.59,4.89.37,6.27,5a1,1,0,0,0,1.4.81c1.65-.35,8.39-9.66,20-12.68,7.93-2,12.82.55,15.13,6.25,2.05-3.3,12.1-13.19,22.48-15.7,12-2.87,16.92,5,16.92,18.59v15.14c0,14.16,6,23.63,6,32.9,0,8.32-7.27,7.84-10,7.88l-14.61.24c-3.84,0-10.18-.7-10.18-6.43,0-9.83,3.9-20.12,3.7-30.44-.13-5.88-1.06-14-6.41-12.82s-6,9.36-6.09,15c-.13,11.62,6,21,6,28.37,0,6.46-5.75,6.63-10.05,6.7l-14.6.26c-3.84,0-10.19-.5-10.18-5.12,0-7.93,3.89-16.67,3.7-25.72-.14-5.13-1.06-12.47-6.41-11.3s-6.09,8.66-6.15,13.51c-.07,9.28,6.08,16.49,6.08,23.66,0,4.61-6.34,5.27-10.18,5.38l-16.92.28c-2.78,0-10.05.48-10.05-3.86,0-4.85,6-11.2,6-21.33,0-12.23-6.48-13.14-6.48-19.38C198.76,131.49,205.17,129,211.12,126.18Z" fill="inherit"/><path d="M346.69,92.59c13.55-1.85,26.11,4.36,26.11,21.25,0,19-10.45,29-20.16,33.61-4.63,2.27-8.2,1.81-10.18,2-1.12.08-1.72.31-1.72,1.37,0,2.83,4.17,3.74,6.88,3.59,9.45-.54,12.09-8.73,17.64-9,6-.32,8.53,9.08,8.53,14.74,0,8.79-8.39,19.3-27.1,19.35C323.49,179,311,156.58,311,137,311,117.24,322.23,96.25,346.69,92.59Zm-8.46,43.9c3.3-.33,7-5.59,9.25-12.87S349,112,345.7,112.37s-6.94,5.3-9.19,12.57S334.92,136.85,338.23,136.49Z" fill="inherit"/><path d="M387.15,92.57c3.23-1,10.5-3.22,12.22-3.13,2.45.1,4.89,1.86,6.28,7.64.2.84.53,1.38,1.39,1.43,1.65.08,8.4-8.34,20-6.5C439,94,444,104.52,444,118.54v15.9c0,15.21,6,26.51,6,35.87,0,8.53-7.28,7.89-10.05,7.82q-6.18-.09-12.36-.16c-2.78,0-12.43.54-12.43-9,0-13.22,3.9-25.39,3.7-37.67-.13-7.1-1.05-16.77-6.41-17.18-5.69-.45-6.21,9.28-6.15,16.39.07,13.58,6.09,27.37,6.09,38.41,0,9.52-9.66,8.89-12.43,8.85H385.29c-2.77,0-10,.65-10-8.95,0-10.58,6-22.39,6-38.52,0-18.93-6.47-20.8-6.48-29C374.79,96,381.19,94.4,387.15,92.57Z" fill="inherit"/><path d="M451.33,150.35c0-20.26,11.83-30.66,11.83-38.19,0-2.48-.66-3.34-1.85-3.73s-2.91-.21-4.83-.78c-3.7-1.09-5.08-3.25-5.08-6.16,0-3.59,6.7-3.69,13.38-7.55,5.94-3.46,8-11.11,11.87-9.7,2.57,1,3,4.52,3,6.89v17.41l2.71,1.23a6.11,6.11,0,0,1,3.56,5.29v.2c0,2.13-1.45,2.92-3.56,2-.91-.41-1.81-.8-2.71-1.19V143c0,22.08,9.25,23,9.25,28.12,0,5.72-8.59,8.92-15.6,8.93C461.05,180.22,451.33,168.69,451.33,150.35Z" fill="inherit"/></g><g data-name="surface1" fill="#eeca5c" id="change3_5" stroke="#000" stroke-miterlimit="10"><path d="M155.73,64.24c0-26.65,11.51-48.14,31.34-47.69S218.39,33.6,218.39,56c0,22.7-11.49,39.5-31.32,43.6C167.24,103.35,155.73,90.7,155.73,64.24Zm31.34,16.14c3.5-.65,5.88-8.43,5.88-20.32S190.57,39.73,187.07,40s-5.89,9.28-5.89,21.65S183.56,81,187.07,80.38Z" fill="inherit"/><path d="M131.84,158.84c0-13.87,11.51-27.46,31.34-30.17,19.83-3.12,31.32,7.49,31.32,24.11,0,16.79-11.49,25.31-31.32,25S131.84,172.51,131.84,158.84Zm31.34,9c3.5-.22,5.88-4.43,5.88-11.72s-2.38-12.66-5.88-12.17-5.89,6.26-5.89,13.34S159.67,168,163.18,167.84Z" fill="inherit"/><path d="M223.49,45.88c0-8.73-2.71-12.81-2.71-21.54a7,7,0,0,1,6.6-7.33l13.36-.11c7.47.06,9.06,10.34,9.06,17.11,0,13.53-4.83,21.67-4.83,27.65,0,3.17,1.06,6.09,3.63,5.51,6-1.4,8.33-13.39,8.33-22.09,0-11.54-2.18-16.37-2.18-22.51s5.82-5.81,8.6-5.84l14.27-.12c2.78,0,10.05-.42,10.05,4.56S281.79,33.73,281.79,47c0,10.7,6,15.54,6,21.37,0,6-6.21,7.09-9,7.75q-6.07,1.49-12.16,3c-4.89,1.22-7.6.47-9.06-2.78-1.58,3.4-9,8.32-14.41,9.7-16.86,4.29-22.47-3.64-22.47-17.42C220.71,58.29,223.49,54.71,223.49,45.88Z" fill="inherit"/><path d="M301.49,18.16C304.73,17.45,312,16,313.71,16a6.39,6.39,0,0,1,6.48,4.53,43.06,43.06,0,0,1,19.11-4.61c8.72.11,16.59,2.89,16.59,9.15,0,7.5-5.88,11.06-15.27,11.9-12,1.12-5.89-8.74-13-8-6.8.45-6.74,8.64-6.8,13.39,0,9.45,6,13.08,6,18.57,0,5.73-6.21,6.5-9,7-6.39,1.23-12.78,2.58-19.17,4-2.78.62-9,2.47-9-3.55,0-5.84,6-12,6-22.13,0-14.69-6.47-16.52-6.47-22.09C289.13,20.53,295.54,19.4,301.49,18.16Z" fill="inherit"/><path d="M31.08,117.21c3.24.59,10.5,1.32,12.22,1.88,2.45.86,4.9,3.24,6.28,8.39A1.91,1.91,0,0,0,51,129c1.65.46,8.4-4.63,20-2.25,7.93,1.58,12.83,5.83,15.14,11.43,2-2.07,12.1-7.38,22.47-7.13,12,.26,16.92,8.2,16.92,17.61v9.61c0,8.19,6,12.24,6,15.81,0,3.08-7.27,2.77-10.05,2.81H106.9c-3.84-.06-10.19-.31-10.18-2.89,0-4.48,3.9-9.53,3.7-16-.14-3.65-1.06-9.64-6.41-10.1s-6,5.54-6.09,9.29c-.13,7.94,6,13.5,6,16.76,0,2.9-5.75,2.81-10,2.79l-14.61-.18c-3.83-.1-10.18-.53-10.18-3.89,0-5.81,3.9-11.49,3.71-18.69-.14-4.12-1.06-10.7-6.42-12s-6.08,5.22-6.15,9.55c-.06,8.54,6.09,15.89,6.09,21,0,3.35-6.35,3.62-10.18,3.6q-8.46-.2-16.93-.46c-2.77-.1-10,.21-10-6.14,0-7.18,6-13.47,6-24.83,0-13.74-6.47-18.8-6.47-25.85C18.72,114.28,25.13,116.27,31.08,117.21Z" fill="inherit"/><path d="M207,122.05c3.24-1.53,10.5-5.28,12.22-5.71,2.45-.59,4.9.37,6.28,4.94.2.66.53,1,1.39.82,1.66-.36,8.4-9.66,20-12.68,7.94-2,12.83.55,15.14,6.24,2.05-3.29,12.1-13.18,22.48-15.7,12-2.86,16.92,5,16.91,18.6V133.7c0,14.16,6,23.63,6,32.89,0,8.33-7.27,7.85-10,7.88l-14.61.25c-3.84,0-10.18-.7-10.18-6.43,0-9.83,3.9-20.12,3.7-30.44-.14-5.88-1.06-14-6.41-12.82s-6,9.36-6.09,15c-.13,11.63,6,21,6,28.38,0,6.46-5.75,6.62-10.05,6.69l-14.61.27c-3.83,0-10.18-.5-10.17-5.12,0-7.93,3.89-16.67,3.7-25.72-.14-5.14-1.06-12.47-6.42-11.3s-6.08,8.66-6.15,13.51c-.06,9.28,6.09,16.48,6.09,23.66,0,4.61-6.35,5.26-10.18,5.38l-16.93.28c-2.77,0-10,.48-10-3.86,0-4.85,6-11.2,6-21.33,0-12.23-6.47-13.14-6.47-19.38C194.63,127.36,201,124.9,207,122.05Z" fill="inherit"/><path d="M342.56,88.46c13.55-1.85,26.11,4.36,26.11,21.25,0,19-10.45,29-20.16,33.61-4.63,2.27-8.2,1.8-10.18,2-1.12.08-1.72.31-1.72,1.37,0,2.83,4.17,3.74,6.88,3.59,9.44-.54,12.09-8.73,17.64-9,6-.32,8.53,9.07,8.53,14.74,0,8.79-8.39,19.3-27.1,19.35-23.2-.51-35.7-22.89-35.7-42.47C306.87,113.11,318.1,92.12,342.56,88.46Zm-8.46,43.9c3.3-.33,7-5.59,9.25-12.87s1.52-11.66-1.78-11.25-6.95,5.3-9.19,12.57S330.79,132.72,334.1,132.36Z" fill="inherit"/><path d="M383,88.44c3.24-1,10.51-3.22,12.23-3.13,2.45.1,4.89,1.86,6.28,7.64.2.83.53,1.38,1.39,1.43,1.65.08,8.39-8.35,20-6.5,12,2,16.92,12.51,16.92,26.53v15.9c0,15.2,6,26.51,6,35.87,0,8.53-7.28,7.89-10.05,7.82q-6.18-.09-12.36-.16c-2.78,0-12.43.53-12.43-9,0-13.22,3.9-25.39,3.7-37.67-.13-7.1-1.05-16.77-6.41-17.18-5.69-.45-6.21,9.28-6.15,16.39.07,13.57,6.09,27.36,6.08,38.41,0,9.52-9.65,8.89-12.42,8.85H381.16c-2.78,0-10,.66-10-8.94,0-10.58,6-22.39,6-38.52,0-18.93-6.48-20.8-6.48-29.05C370.65,91.91,377.06,90.26,383,88.44Z" fill="inherit"/><path d="M447.2,146.22C447.2,126,459,115.56,459,108c0-2.48-.66-3.34-1.85-3.73s-2.91-.21-4.83-.78c-3.7-1.09-5.09-3.25-5.08-6.16,0-3.59,6.7-3.69,13.38-7.55,5.94-3.46,8-11.11,11.87-9.7,2.57,1,3,4.52,3,6.89v17.41c.91.4,1.81.81,2.72,1.23a6.11,6.11,0,0,1,3.56,5.29v.2c0,2.13-1.45,2.91-3.56,2l-2.72-1.18v26.94c0,22.08,9.26,22.95,9.26,28.12,0,5.72-8.59,8.92-15.6,8.93C456.91,176.08,447.2,164.56,447.2,146.22Z" fill="inherit"/></g><g data-name="surface1" fill="#61a0e8" id="change4_1" stroke="#000" stroke-miterlimit="10"><path d="M151.6,60.1c0-26.64,11.51-48.13,31.33-47.68s31.33,17,31.33,39.43c0,22.7-11.5,39.5-31.33,43.6C163.1,99.22,151.6,86.57,151.6,60.1Zm31.33,16.15c3.51-.65,5.89-8.43,5.89-20.32s-2.39-20.33-5.89-20.06-5.88,9.28-5.88,21.65S179.43,76.85,182.93,76.25Z" fill="inherit"/><path d="M127.71,154.71c0-13.87,11.51-27.46,31.34-30.17,19.82-3.12,31.32,7.49,31.32,24.11,0,16.79-11.49,25.31-31.32,25S127.71,168.38,127.71,154.71Zm31.34,9c3.5-.22,5.88-4.43,5.88-11.72s-2.38-12.66-5.88-12.17-5.89,6.26-5.89,13.34S155.54,163.85,159.05,163.71Z" fill="inherit"/><path d="M219.36,41.75c0-8.73-2.71-12.81-2.71-21.54a7,7,0,0,1,6.6-7.33l13.36-.11c7.47.06,9,10.34,9,17.11,0,13.53-4.82,21.67-4.82,27.64,0,3.18,1.06,6.1,3.63,5.52,6-1.4,8.33-13.4,8.33-22.09,0-11.54-2.18-16.37-2.18-22.51s5.82-5.82,8.6-5.85l14.27-.11c2.78,0,10.05-.42,10.05,4.55s-5.88,12.57-5.89,25.88c0,10.69,6,15.54,6,21.36,0,6-6.21,7.09-9,7.76q-6.07,1.48-12.16,3c-4.89,1.23-7.6.48-9.06-2.77-1.59,3.39-9,8.32-14.41,9.7-16.86,4.28-22.47-3.64-22.47-17.42C216.58,54.16,219.36,50.58,219.36,41.75Z" fill="inherit"/><path d="M297.35,14c3.24-.71,10.51-2.16,12.23-2.14a6.38,6.38,0,0,1,6.48,4.52,43.06,43.06,0,0,1,19.11-4.6c8.72.11,16.59,2.89,16.59,9.15,0,7.49-5.89,11.06-15.27,11.9-12,1.12-5.89-8.74-13-8-6.8.45-6.74,8.64-6.8,13.39,0,9.45,6,13.07,6,18.57,0,5.73-6.21,6.5-9,7q-9.58,1.85-19.17,4c-2.78.62-9,2.47-9-3.55,0-5.85,6-12,6-22.13,0-14.69-6.48-16.52-6.48-22.09C285,16.4,291.41,15.27,297.35,14Z" fill="inherit"/><path d="M27,113.08c3.23.59,10.5,1.32,12.22,1.88,2.45.86,4.9,3.23,6.28,8.39a1.91,1.91,0,0,0,1.39,1.53c1.65.46,8.39-4.64,20-2.25,7.93,1.58,12.82,5.83,15.13,11.43,2.06-2.07,12.1-7.38,22.48-7.13,12,.26,16.92,8.2,16.92,17.61v9.61c0,8.19,6,12.24,6,15.81,0,3.08-7.27,2.77-10,2.81H102.76c-3.83-.06-10.18-.31-10.18-2.89,0-4.48,3.91-9.53,3.71-16-.14-3.65-1.06-9.64-6.42-10.1s-6,5.54-6.08,9.29c-.13,7.94,6,13.5,6,16.76,0,2.9-5.75,2.81-10,2.79l-14.61-.18c-3.83-.1-10.18-.54-10.18-3.89,0-5.81,3.9-11.49,3.7-18.69-.13-4.13-1.05-10.7-6.41-12s-6.08,5.22-6.15,9.55c-.06,8.54,6.09,15.89,6.09,21,0,3.35-6.35,3.62-10.18,3.6q-8.48-.19-16.93-.46c-2.78-.1-10,.21-10-6.14,0-7.19,6-13.47,6-24.83,0-13.74-6.48-18.8-6.48-25.85C14.58,110.15,21,112.14,27,113.08Z" fill="inherit"/><path d="M202.86,117.92c3.24-1.53,10.5-5.28,12.22-5.71,2.45-.59,4.9.37,6.28,4.94a1,1,0,0,0,1.39.82c1.66-.36,8.4-9.66,20-12.68,7.93-2,12.83.55,15.14,6.24,2.05-3.29,12.09-13.18,22.47-15.7,12-2.86,16.92,5,16.92,18.6v15.14c0,14.16,6,23.63,6,32.89,0,8.33-7.27,7.85-10.05,7.88l-14.61.25c-3.83,0-10.17-.7-10.17-6.43,0-9.83,3.9-20.13,3.7-30.44-.14-5.89-1.06-14-6.42-12.82s-6,9.36-6.08,15c-.13,11.63,6,21,6,28.38,0,6.46-5.75,6.62-10.05,6.69l-14.61.27c-3.83,0-10.18-.5-10.18-5.12,0-7.93,3.9-16.67,3.71-25.72-.14-5.14-1.06-12.48-6.42-11.3s-6.08,8.65-6.15,13.51c-.06,9.28,6.09,16.48,6.09,23.66,0,4.61-6.35,5.26-10.18,5.38L201,172c-2.78,0-10,.48-10-3.86,0-4.85,6-11.21,6-21.33,0-12.23-6.48-13.14-6.47-19.38C190.49,123.23,196.91,120.77,202.86,117.92Z" fill="inherit"/><path d="M338.43,84.33c13.55-1.85,26.11,4.36,26.11,21.25,0,19-10.45,29-20.16,33.6-4.63,2.28-8.2,1.81-10.18,2-1.12.08-1.72.31-1.72,1.37,0,2.83,4.16,3.74,6.87,3.59,9.45-.54,12.1-8.73,17.65-9,6-.32,8.53,9.07,8.53,14.74,0,8.79-8.39,19.3-27.1,19.35-23.2-.52-35.7-22.89-35.7-42.47C302.73,109,314,88,338.43,84.33ZM330,128.23c3.3-.33,7-5.59,9.25-12.87s1.52-11.66-1.79-11.25-6.94,5.3-9.18,12.57S326.66,128.59,330,128.23Z" fill="inherit"/><path d="M378.88,84.3c3.24-1,10.51-3.22,12.23-3.12,2.45.1,4.89,1.86,6.28,7.64.2.83.53,1.38,1.39,1.43,1.65.08,8.39-8.35,20-6.51,12,2,16.92,12.52,16.92,26.54v15.9c0,15.2,6,26.5,6,35.87,0,8.53-7.27,7.89-10,7.82q-6.18-.09-12.36-.16c-2.78,0-12.43.53-12.43-9,0-13.22,3.9-25.4,3.7-37.68-.13-7.1-1.06-16.77-6.41-17.17-5.69-.45-6.22,9.28-6.15,16.39.07,13.57,6.08,27.36,6.08,38.41,0,9.51-9.65,8.89-12.42,8.85H377c-2.78,0-10,.66-10-8.94,0-10.58,6-22.39,6-38.52,0-18.93-6.48-20.8-6.48-29C366.52,87.77,372.93,86.13,378.88,84.3Z" fill="inherit"/><path d="M443.07,142.09c0-20.26,11.83-30.67,11.83-38.19,0-2.49-.66-3.34-1.85-3.73s-2.91-.22-4.83-.78c-3.7-1.09-5.09-3.25-5.09-6.16,0-3.59,6.71-3.7,13.39-7.55,5.94-3.46,8-11.11,11.86-9.7,2.58,1,3,4.52,3,6.89v17.41c.91.4,1.81.81,2.71,1.23a6.1,6.1,0,0,1,3.57,5.29v.2c0,2.13-1.45,2.91-3.57,2-.9-.4-1.8-.8-2.71-1.18v26.94c0,22.07,9.26,23,9.26,28.12,0,5.72-8.6,8.92-15.6,8.93C452.78,172,443.07,160.43,443.07,142.09Z" fill="inherit"/></g><g id="change1_2"><path d="M160.29,28.27c0-16-18.09-7.26-5,2.39C142.2,21,137.73,40.59,154.11,36c-16.38,4.57-3.86,20.26,3.43,4.29-7.29,16,12.78,16,5.5,0,7.28,16,19.8.28,3.42-4.29,16.38,4.57,11.91-15-1.22-5.36C178.37,21,160.29,12.3,160.29,28.27Z" fill="#fff" stroke="#000" stroke-linecap="round" stroke-linejoin="round" stroke-width=".75"/></g><g id="change3_1"><circle cx="160.68" cy="34.76" fill="#eeca5c" r="5.74" stroke="#000" stroke-linecap="round" stroke-linejoin="round" stroke-width=".75"/></g><g id="change1_3"><path d="M23.73,147.65c0-11.44-13-5.2-3.55,1.71-9.42-6.91-12.62,7.12-.88,3.85-11.74,3.27-2.77,14.53,2.46,3.08-5.23,11.45,9.17,11.45,3.94,0,5.23,11.45,14.2.19,2.46-3.08,11.74,3.27,8.54-10.76-.88-3.85C36.7,142.45,23.73,136.21,23.73,147.65Z" fill="#fff" stroke="#000" stroke-linecap="round" stroke-linejoin="round" stroke-width=".75"/></g><g id="change3_2"><circle cx="24.01" cy="152.3" fill="#eeca5c" r="4.12" stroke="#000" stroke-linecap="round" stroke-linejoin="round" stroke-width=".75"/></g><g id="change1_4"><path d="M434.52,136.86c5-15.16-14.9-12.57-5.45.71-9.45-13.28-19.83,3.9-2.85,4.7-17-.8-10,18,1.91,5.16-11.93,12.87,7.13,19.17,5.22,1.72,1.91,17.45,18.72,6.48,4.6-3,14.12,9.48,16-10.51.52-5.48C454,135.64,439.53,121.7,434.52,136.86Z" fill="#fff" stroke="#000" stroke-linecap="round" stroke-linejoin="round" stroke-width=".75"/></g><g id="change3_3"><circle cx="432.86" cy="143.14" fill="#eeca5c" r="5.74" stroke="#000" stroke-linecap="round" stroke-linejoin="round" stroke-width=".75"/></g><g id="change1_5"><path d="M452.42,119.93c7.15-8.84-6.77-12.12-3.81-.9-3-11.22-14.19-2.37-3.07,2.43-11.12-4.8-11.21,9.49,0,3.91-11.18,5.58-.06,14.57,3.05,2.46-3.11,12.11,10.85,9,3.82-.84,7,9.86,13.31-3,1.72-3.52C465.69,124,459.57,111.09,452.42,119.93Z" fill="#fff" stroke="#000" stroke-linecap="round" stroke-linejoin="round" stroke-width=".75"/></g><g id="change3_4"><circle cx="449.74" cy="123.7" fill="#eeca5c" r="4.09" stroke="#000" stroke-linecap="round" stroke-linejoin="round" stroke-width=".75"/></g></g></svg>