<?xml version="1.0" encoding="UTF-8"?><svg xmlns="http://www.w3.org/2000/svg" xmlns:xlink="http://www.w3.org/1999/xlink" data-name="Layer 4" height="500.0" preserveAspectRatio="xMidYMid meet" version="1.0" viewBox="-0.0 0.0 500.0 500.0" width="500.0" zoomAndPan="magnify"><g id="change1_1"><path d="M0,0V308.1c74.975,8.743,200.693,17.8,285.52-4.514C358.966,284.273,442.163,287.027,500,292.939V0Z" fill="#d0f7ff"/></g><g id="change2_1"><path d="M500,250V405.975c-2.66,1.046-15.63-3.33-35.71-6.365a229.766,229.766,0,0,0-47.88-2.331c-24.61,1.444-52.85,19.518-83.22,20.769a77.852,77.852,0,0,1-11.59-.455c-23.42-2.58-47.85-14.016-72.13-13.4-20.37.511-40.7,9.492-60.49,14.539a94.573,94.573,0,0,1-22.97,3.376,93.121,93.121,0,0,1-12.98-.921c-25.54-3.535-49.42-16.13-70.46-16.983-2.2-.091-4.36-.17-6.51-.227-32.16-1-56.77.477-68.54-1.592-.25-.045-.49-.091-.72-.136-.19-.046-.38-.08-.56-.114-.42-.1-.83-.193-1.21-.307-.02,0-.04-.011-.06-.011A14.119,14.119,0,0,1,2.69,401c-.03-.011-.05-.022-.08-.034-.25-.125-.48-.25-.71-.386-.09-.057-.19-.114-.28-.182a3.554,3.554,0,0,1-.33-.239A3.719,3.719,0,0,1,0,398.405V250Z" fill="#59c5f4"/></g><g id="change3_1"><path d="M0 245.787H500V254.213H0z" fill="#00b0fb"/></g><g id="change4_1"><path d="M499.443,358.722c-27.989-2.98-56.278-4.188-84.375-2.077-26.084,1.959-48.592,13.993-74.062,18.305a162.265,162.265,0,0,1-41.2,1.666c-13.072-1.145-25.619-4.963-38.724-5.884a139.218,139.218,0,0,0-40.62,3.151c-13.589,3.1-25.52,10.1-38.645,13.826-28,7.948-57.99,8.3-85.818-.428,12.753,18.437,35.131,27.2,56.762,33.092C189.2,430.3,227.222,436.912,264.7,432.246c14.962-1.862,29.639-5.5,44.483-8.139,21.842-3.885,44.013-5.6,66.172-6.685,40.371-1.971,80.863-1.844,121.121-5.454.967-.086,1.975-.207,2.974-.385C499.447,411.583,499.447,358.722,499.443,358.722Z" fill="#fff"/></g><g id="change5_1"><path d="M416.413,379.563c-24.611,1.27-52.85,17.169-83.218,18.269-26.889.974-55.411-12.821-83.727-12.193-28.344.629-56.593,15.681-83.461,15.763-30.43.093-58.872-14.875-83.434-15.757-44.581-1.6-79.382,1.866-82.572-4.932V500H500V387.207C495.6,388.735,462.922,377.162,416.413,379.563Z" fill="#ffe8c7"/></g></svg>