<?xml version="1.0" encoding="UTF-8"?><svg xmlns="http://www.w3.org/2000/svg" xmlns:xlink="http://www.w3.org/1999/xlink" height="220.6" preserveAspectRatio="xMidYMid meet" version="1.1" viewBox="101.7 102.3 221.8 220.6" width="221.8" zoomAndPan="magnify">
 <g id="surface1">
  <g id="change1_1"><path d="m207.8 265.55c-6.2-3.1-13.25-3.7-19.44-7.07-5.61-3.06-10.8-7.17-15.14-11.85-8.98-9.68-14.67-22.15-14.28-35.49 0.11-3.61 2.95-5.39 5.76-5.36 3.2-22.64 22.02-40.16 45.1-41.48-0.48-3.59 2.43-7.78 7-6.5 12.77 3.58 25.21 10.46 34.88 19.56 4.68 4.4 8.74 9.62 11.04 15.66 2.56 6.75 2.29 14.57 1.61 21.62-0.24 2.61-1.9 4.25-3.86 4.95-3.21 22.23-21.52 39.51-44.1 41.25-0.46 3.48-4.38 6.81-8.57 4.71m113.94-37.67c-0.99-0.43-1.86-1.26-2.46-2.59-6.67-14.97-2.62-31.94-6.92-47.5-4.07-14.73-13.35-27.07-24.62-37.15-11.94-10.68-26.33-19.34-40.85-26.04-17.43-8.04-36.67-10.83-55.5-6.78-2.51 0.54-4.49-0.49-5.68-2.1-43.53 10.92-76.88 47.78-82.45 93.37 0.63 0.58 1.17 1.32 1.54 2.26 2.68 6.79 0.5 14.27 1.21 21.32 0.81 7.99 3.83 15.5 7.17 22.73 6.16 13.35 12.85 25.97 22.82 36.92 9.57 10.52 20.89 19.11 32.89 26.66 1.7 1.06 3.41 2.15 5.14 3.21 0.88-0.69 2.02-1.12 3.42-1.09 10.39 0.21 20.86 1.47 31.2 2.45 6.08 0.57 12.16 1.15 18.21 1.96 2.78 0.37 8.28 0.37 10.24 2.96 0.34 0.46 0.6 0.92 0.79 1.4 43.75-10.28 77.56-46.66 83.85-91.99" fill="#ef365b"/></g>
  <g id="change2_1"><path d="m212.03 260.99c-26.73-0.32-48.13-22.24-47.82-48.96 0.04-2.94 0.35-5.81 0.88-8.59-21.02 3.94-42.93 2.75-61.54-6.67-0.69 4.75-1.07 9.6-1.13 14.53-0.72 60.85 48.03 110.77 108.88 111.48 10.63 0.13 20.92-1.26 30.67-3.95-16.53-13.8-22.47-35.97-24.45-58.1-1.81 0.18-3.63 0.28-5.49 0.26" fill="#eeeeec"/></g>
  <g id="change2_2"><path d="m213.17 164.21c26.72 0.32 48.13 22.24 47.82 48.96-0.04 2.94-0.35 5.81-0.88 8.59 21.01-3.94 42.93-2.75 61.54 6.67 0.69-4.75 1.07-9.6 1.13-14.53 0.72-60.85-48.03-110.76-108.88-111.48-10.63-0.13-20.92 1.26-30.67 3.95 16.53 13.8 22.47 35.97 24.45 58.1 1.8-0.18 3.63-0.28 5.49-0.26" fill="#eeeeec"/></g>
  <g id="change1_2"><path d="m267.19 166.45c2.29 0.03 4.17-1.8 4.19-4.09 0.03-2.29-1.81-4.16-4.09-4.19-2.29-0.03-4.17 1.8-4.2 4.09-0.02 2.29 1.81 4.17 4.1 4.19" fill="#ef365b"/></g>
  <g id="change1_3"><path d="m158.57 272.55c2.29 0.02 4.16-1.81 4.19-4.1s-1.81-4.16-4.1-4.19c-2.28-0.03-4.16 1.81-4.19 4.1-0.02 2.28 1.81 4.16 4.1 4.19" fill="#ef365b"/></g>
  <g id="change2_3"><path d="m164.02 161.09c0.03-2.29-1.8-4.16-4.09-4.19-2.29-0.02-4.17 1.81-4.19 4.1-0.03 2.29 1.8 4.16 4.09 4.19 2.29 0.02 4.17-1.81 4.19-4.1" fill="#eeeeec"/></g>
  <g id="change2_4"><path d="m270.11 269.72c0.03-2.29-1.8-4.17-4.09-4.2-2.29-0.02-4.16 1.81-4.19 4.1s1.81 4.17 4.09 4.19c2.29 0.03 4.17-1.8 4.19-4.09" fill="#eeeeec"/></g>
  <g id="change2_5"><path d="m321.74 227.88h-0.01 0.01m-218.18-31.1l-0.01-0.01 0.01 0.01m110.34-94.36c-0.25-0.01-0.49-0.01-0.74-0.01 0.25 0 0.49 0 0.74 0.01" fill="#eeeeec"/></g>
  <g id="change3_1"><path d="m241.97 318.82c-0.38-0.32-0.76-0.64-1.13-0.97 1.68-0.03 3.36-0.1 5.04-0.19-1.29 0.41-2.59 0.8-3.91 1.16m78.73-84.87c0-2.01-0.02-4.03-0.09-6.04 0.34 0.17 0.69 0.34 1.04 0.52-0.27 1.86-0.6 3.69-0.95 5.52m1-5.81c0.01-0.09 0.02-0.18 0.03-0.26h0.01c-0.01 0.09-0.03 0.17-0.04 0.26m-197.92-24.44c-7.01-1.42-13.81-3.68-20.22-6.92l0.02 0.01c6.28-43.66 38.08-78.93 79.67-90.4 6.89 5.75 11.93 12.97 15.62 21.02-5.81 1.15-11.45 2.8-16.82 4.94-19.67 7.85-40.95 22.46-50.42 41.99-4.4 9.09-6.88 19.12-7.85 29.36" fill="#e33659"/></g>
  <g id="change4_1"><path d="m212.61 322.79c-0.43 0-0.87 0-1.31-0.01-60.41-0.71-108.89-49.9-108.89-110.14 0-0.45 0-0.89 0.01-1.34 0.06-4.93 0.44-9.78 1.13-14.53l0.01 0.01c6.41 3.24 13.21 5.5 20.22 6.92-1.07 11.42-0.26 23.09 1.88 33.99 4.35 22.16 16.01 43.25 34.14 56.97 16.72 12.65 37.55 18.51 57.96 21.76 6.46 1.03 13.06 1.47 19.69 1.47 1.13 0 2.26-0.01 3.39-0.04 0.37 0.33 0.75 0.65 1.13 0.97v0.01c-1.31 0.36-2.63 0.69-3.97 1.01l-0.11 0.03v-0.01c-8.12 1.91-16.58 2.93-25.28 2.93" fill="#dfdfdc"/></g>
  <g id="change4_2"><path d="m321.65 228.43c-0.35-0.18-0.7-0.35-1.04-0.52-0.76-22.24-6.31-44.4-18.08-62.36-17.36-26.5-50.42-40.19-82.53-40.19-7.15 0-14.26 0.68-21.13 2.05-3.69-8.05-8.73-15.27-15.62-21.02l-0.02-0.02c0.5-0.14 1.01-0.26 1.52-0.39 0.32-0.08 0.64-0.18 0.96-0.26v0.01c8.61-2.16 17.61-3.32 26.88-3.32h0.57c0.25 0 0.49 0 0.74 0.01 60.4 0.71 108.89 49.9 108.89 110.14 0 0.45 0 0.89-0.01 1.34-0.05 4.74-0.42 9.4-1.05 13.98-0.01 0.08-0.02 0.17-0.03 0.26-0.01 0.04-0.02 0.09-0.02 0.14l-0.03 0.15" fill="#dfdfdc"/></g>
 </g>
</svg>